<svg width="65" height="65" viewBox="0 0 65 65" fill="none" xmlns="http://www.w3.org/2000/svg">
<g clip-path="url(#clip0_7_18)">
<path d="M32.6256 0.350403C24.3694 0.362103 16.1132 3.5124 9.8128 9.8128C3.5123 16.1133 0.362103 24.3695 0.350403 32.6256C11.1947 32.2743 32.2743 11.1947 32.6256 0.350403Z" fill="black"/>
<path d="M64.9009 32.6256C64.8891 24.3695 61.7389 16.1133 55.4385 9.8128C49.138 3.5124 40.8818 0.362103 32.6256 0.350403C32.977 11.1947 54.0566 32.2743 64.9009 32.6256Z" fill="black"/>
<path d="M32.6256 64.9009C40.8818 64.8892 49.1379 61.7389 55.4384 55.4385C61.7389 49.138 64.8891 40.8818 64.9008 32.6257C54.0565 32.977 32.9769 54.0566 32.6256 64.9009Z" fill="black"/>
<path d="M0.350403 32.6257C0.362103 40.8818 3.5124 49.138 9.8128 55.4385C16.1133 61.7389 24.3695 64.8892 32.6256 64.9009C32.2743 54.0566 11.1947 32.977 0.350403 32.6257Z" fill="black"/>
</g>
<defs>
<clipPath id="clip0_7_18">
<rect width="65" height="65" fill="white"/>
</clipPath>
</defs>
</svg>
